# xmcd CD database file
# Copyright (C) 1993-1998 Ti Kan
#
# Track frame offsets:
# 	200
# 	9247
# 	19597
# 	28590
# 	42382
# 	55370
# 	66490
# 	79042
# 	87965
# 	96455
# 	104535
# 	113137
# 	126012
# 	139365
# 	149042
# 	157055
# 	173250
# 	184252
# 	197527
# 	210915
#
# Disc length: 2921 seconds
#
# Revision: 1
# Processed by: cddbd v1.4b41PL1 Copyright (c) Steve Scherf et al.
# Submitted via: DiscPlay 3.4.1
#
DISCID=180b6714
DTITLE=Ralph Stanley - Bound To Ride
DYEAR=1900
DGENRE=
TTITLE0=Shout Little Lulie
TTITLE1=Little Birdie
TTITLE2=Maple On the Hill
TTITLE3=What About You
TTITLE4=The Lonesome River
TTITLE5=I'll Remember You Love In My Prayers
TTITLE6=God Gave You to Me
TTITLE7=Gold Watch and Chain
TTITLE8=Rocky Island
TTITLE9=Old Time Pickin'
TTITLE10=Riding the Midnight Train
TTITLE11=I'm a Man Of Constant Sorrow
TTITLE12=Will You Miss Me
TTITLE13=Katy Daley
TTITLE14=Bound To Ride
TTITLE15=Pretty Polly
TTITLE16=Going To Georgia
TTITLE17=Hemlocks and Primroses
TTITLE18=The Orphan Girl
TTITLE19=Nobody's Love Is Like Mine
EXTD=
EXTT0=
EXTT1=
EXTT2=
EXTT3=
EXTT4=
EXTT5=
EXTT6=
EXTT7=
EXTT8=
EXTT9=
EXTT10=
EXTT11=
EXTT12=
EXTT13=
EXTT14=
EXTT15=
EXTT16=
EXTT17=
EXTT18=
EXTT19=
PLAYORDER=
